<svg xmlns="http://www.w3.org/2000/svg" viewBox="0 0 64 64" xml:space="preserve"><path d="M63 58.009H3.838a1.89 1.89 0 0 1-1.313-.533 1.76 1.76 0 0 1-.534-1.265V5A.99.99 0 1 0 .01 5v51.21c0 1.015.4 1.966 1.127 2.679.72.71 1.68 1.102 2.702 1.102H63a.99.99 0 1 0 0-1.982z"/><path d="M10 49.012c.266 0 .531-.105.73-.31L25.775 33.04l10.703 9.322a1.01 1.01 0 0 0 1.568-.309l12.055-24.002 1.246 5.537a1.08 1.08 0 0 0 2.103-.473l-1.8-8a1.08 1.08 0 0 0-.548-.717 1.065 1.065 0 0 0-.902-.047L42 17.612a1.077 1.077 0 1 0 .797 2.002l5.316-2.114-11.29 22.48-10.446-9.098a1.012 1.012 0 0 0-1.394.061L9.271 47.3a1.013 1.013 0 0 0 .73 1.713z"/></svg>