<svg xmlns="http://www.w3.org/2000/svg" viewBox="0 0 413.838 413.838" style="enable-background:new 0 0 413.838 413.838" xml:space="preserve"><path d="M402.113 176.526c0 9.716.053 18.654-.041 27.583-.027 2.563-.18 5.203-.811 7.679-2.23 8.715-10.518 14.213-19.627 13.264-9.119-.953-16.053-8.41-16.27-17.944-.207-8.833-.061-17.673-.062-26.51v-3.626h-11.344c-.088.905-.219 1.629-.219 2.36-.006 9.375-.148 18.754.047 28.128.48 23.186 25.744 36.92 45.619 24.895.701-.422 1.436-.775 2.262-1.221.441 8.836-6.305 16.812-15.025 17.896-2.842.354-5.715.418-8.65.625v11.406c1.998 0 3.805.051 5.604-.013 13.133-.426 29.801-10.166 30.238-23.289l.004-3.682v-57.554c-3.817.003-7.639.003-11.725.003zM15.245 236.964c5.912.146 11.856.162 17.744-.324 15.1-1.248 26.762-13.775 27.084-28.73.332-15.571-10.535-28.739-25.568-30.598-12.756-1.58-32.602 5.255-34.373 22.403L0 261.235h11.733l-.085-24.281m19.668-11.801-19.457.062.063-20.991c1.015-9.737 9.862-16.21 19.896-15.481 9.412.68 16.886 8.938 16.695 18.466-.186 9.688-7.585 17.456-17.197 17.944zm223.842-47.195c-6.596-1.211-13.506-.665-20.277-.923-1.469-.061-2.938-.148-4.682-.248v-24.184h-11.645c.021 18.212-.08 36.416.105 54.628.188 17.819 15.146 31.101 32.869 29.472 14.816-1.365 26.09-13.132 27.006-28.22.902-14.521-8.911-27.863-23.376-30.525zm11.77 29.926c-.867 10.025-8.191 17.146-17.84 17.322-9.955.189-17.781-6.488-18.666-16.686l-.016-19.419 21.459-.015c9.248 1.097 15.824 9.957 15.063 18.798zm-90.429-30.819c-14.39 1.997-24.936 14.031-25.389 28.973-.428 14.162 9.801 27.393 23.742 29.656l35.917.104.01-30.871c-.988-18.225-16.194-30.367-34.28-27.862zm.719 47.186c-9.655-1.271-15.623-10.557-14.298-20.474 1.197-8.946 9.442-15.838 18.554-15.522 9.826.356 17.493 7.729 17.771 17.348l.033 18.669-22.06-.021zm134.251-47.186c-14.385 1.997-24.936 14.031-25.385 28.973-.438 14.162 9.801 27.393 23.744 29.656l35.918.104.006-30.871c-.986-18.225-16.197-30.367-34.283-27.862zm.719 47.186c-9.65-1.271-15.617-10.557-14.295-20.474 1.195-8.946 9.443-15.838 18.561-15.522 9.818.356 17.484 7.729 17.771 17.348l.035 18.669-22.072-.021zm-165.829 8.184-21.502-26.263 22.611-28.95-15.052-.003L118.38 195.6l-13.518-18.232-14.313-.022c1.113 1.614 1.754 2.57 2.427 3.505l18.348 25.427-20.213 26.677c-.724.967-1.366 2-2.378 3.483l15.278.028 13.954-19.67c1.058 1.183 1.87 2.017 2.586 2.916l12.747 16.688 16.264.015c-1.341-1.68-2.263-2.836-3.203-3.98zm-78.155-55.614h11.055v59.528H68.204v-59.528z"/></svg>